<mxfile host="app.diagrams.net" agent="Mozilla/5.0 (Windows NT 10.0; Win64; x64; rv:131.0) Gecko/20100101 Firefox/131.0" version="24.7.17">
  <diagram id="R2lEEEUBdFMjLlhIrx00" name="Page-1">
    <mxGraphModel dx="6597" dy="3964" grid="1" gridSize="10" guides="1" tooltips="1" connect="1" arrows="1" fold="1" page="1" pageScale="1" pageWidth="850" pageHeight="1100" math="0" shadow="0" extFonts="Permanent Marker^https://fonts.googleapis.com/css?family=Permanent+Marker">
      <root>
        <mxCell id="0" />
        <mxCell id="1" parent="0" />
        <mxCell id="NFJiu9YFtX_5betRr8bP-61" value="&lt;b&gt;&lt;font style=&quot;font-size: 36px;&quot;&gt;Equipe&lt;/font&gt;&lt;/b&gt;" style="swimlane;childLayout=stackLayout;horizontal=1;startSize=50;horizontalStack=0;rounded=1;fontSize=14;fontStyle=0;strokeWidth=2;resizeParent=0;resizeLast=1;shadow=0;dashed=0;align=center;arcSize=4;whiteSpace=wrap;html=1;" parent="1" vertex="1">
          <mxGeometry x="-640" y="-90" width="160" height="160" as="geometry" />
        </mxCell>
        <mxCell id="NFJiu9YFtX_5betRr8bP-62" value="&lt;div&gt;&lt;br&gt;&lt;/div&gt;&lt;div&gt;&lt;font size=&quot;3&quot;&gt;id &lt;br&gt;&lt;/font&gt;&lt;/div&gt;&lt;div&gt;&lt;font size=&quot;3&quot;&gt;nom_equipe&lt;/font&gt;&lt;/div&gt;&lt;div&gt;&lt;font size=&quot;3&quot;&gt;numero_equipe&lt;br&gt;&lt;/font&gt;&lt;/div&gt;" style="align=left;strokeColor=none;fillColor=none;spacingLeft=4;fontSize=12;verticalAlign=top;resizable=0;rotatable=0;part=1;html=1;" parent="NFJiu9YFtX_5betRr8bP-61" vertex="1">
          <mxGeometry y="50" width="160" height="110" as="geometry" />
        </mxCell>
        <mxCell id="NFJiu9YFtX_5betRr8bP-63" value="&lt;b&gt;&lt;font style=&quot;font-size: 36px;&quot;&gt;joueur&lt;/font&gt;&lt;/b&gt;" style="swimlane;childLayout=stackLayout;horizontal=1;startSize=50;horizontalStack=0;rounded=1;fontSize=14;fontStyle=0;strokeWidth=2;resizeParent=0;resizeLast=1;shadow=0;dashed=0;align=center;arcSize=4;whiteSpace=wrap;html=1;" parent="1" vertex="1">
          <mxGeometry x="70" y="-210" width="200" height="348" as="geometry" />
        </mxCell>
        <mxCell id="NFJiu9YFtX_5betRr8bP-64" value="&lt;div style=&quot;font-size: 20px;&quot;&gt;&lt;font style=&quot;font-size: 20px;&quot;&gt;id&lt;/font&gt;&lt;/div&gt;&lt;div style=&quot;font-size: 20px;&quot;&gt;&lt;font style=&quot;font-size: 20px;&quot;&gt;nom&lt;/font&gt;&lt;/div&gt;&lt;div style=&quot;font-size: 20px;&quot;&gt;&lt;font style=&quot;font-size: 20px;&quot;&gt;prenom&lt;/font&gt;&lt;/div&gt;&lt;div style=&quot;font-size: 20px;&quot;&gt;&lt;font style=&quot;font-size: 20px;&quot;&gt;numero_licence&lt;/font&gt;&lt;/div&gt;&lt;div style=&quot;font-size: 20px;&quot;&gt;&lt;font style=&quot;font-size: 20px;&quot;&gt;classement_simple&lt;/font&gt;&lt;/div&gt;&lt;div style=&quot;font-size: 20px;&quot;&gt;&lt;font style=&quot;font-size: 20px;&quot;&gt;cpph_simple&lt;/font&gt;&lt;/div&gt;&lt;div style=&quot;font-size: 20px;&quot;&gt;&lt;font style=&quot;font-size: 20px;&quot;&gt;classement_double&lt;/font&gt;&lt;/div&gt;&lt;div style=&quot;font-size: 20px;&quot;&gt;&lt;font style=&quot;font-size: 20px;&quot;&gt;cpph_double&lt;/font&gt;&lt;/div&gt;&lt;div style=&quot;font-size: 20px;&quot;&gt;&lt;font style=&quot;font-size: 20px;&quot;&gt;classement_mixtes&lt;/font&gt;&lt;/div&gt;&lt;div style=&quot;font-size: 20px;&quot;&gt;&lt;font style=&quot;font-size: 20px;&quot;&gt;cpph_mixtes&lt;br&gt;&lt;/font&gt;&lt;/div&gt;&lt;div&gt;&lt;br&gt;&lt;/div&gt;" style="align=left;strokeColor=none;fillColor=none;spacingLeft=4;fontSize=12;verticalAlign=top;resizable=0;rotatable=0;part=1;html=1;" parent="NFJiu9YFtX_5betRr8bP-63" vertex="1">
          <mxGeometry y="50" width="200" height="298" as="geometry" />
        </mxCell>
        <mxCell id="0wRZkrlA4JBPW6aOa1EQ-4" value="&lt;font style=&quot;font-size: 36px;&quot;&gt;Club&lt;/font&gt;" style="swimlane;childLayout=stackLayout;horizontal=1;startSize=50;horizontalStack=0;rounded=1;fontSize=14;fontStyle=1;strokeWidth=2;resizeParent=0;resizeLast=1;shadow=0;dashed=0;align=center;arcSize=4;whiteSpace=wrap;html=1;" parent="1" vertex="1">
          <mxGeometry x="-640" y="420" width="160" height="185" as="geometry" />
        </mxCell>
        <mxCell id="0wRZkrlA4JBPW6aOa1EQ-5" value="&lt;div style=&quot;font-size: 16px;&quot;&gt;&lt;font style=&quot;font-size: 16px;&quot;&gt;id&lt;/font&gt;&lt;/div&gt;&lt;div style=&quot;font-size: 16px;&quot;&gt;&lt;font style=&quot;font-size: 16px;&quot;&gt;nom&lt;/font&gt;&lt;/div&gt;&lt;div style=&quot;font-size: 16px;&quot;&gt;&lt;font style=&quot;font-size: 16px;&quot;&gt;sigle&lt;/font&gt;&lt;/div&gt;&lt;div style=&quot;font-size: 16px;&quot;&gt;&lt;font style=&quot;font-size: 16px;&quot;&gt;gymnase&lt;/font&gt;&lt;/div&gt;&lt;div style=&quot;font-size: 16px;&quot;&gt;&lt;font style=&quot;font-size: 16px;&quot;&gt;adresse&lt;/font&gt;&lt;/div&gt;" style="align=left;strokeColor=none;fillColor=none;spacingLeft=4;fontSize=12;verticalAlign=top;resizable=0;rotatable=0;part=1;html=1;" parent="0wRZkrlA4JBPW6aOa1EQ-4" vertex="1">
          <mxGeometry y="50" width="160" height="135" as="geometry" />
        </mxCell>
        <mxCell id="zXcYbIFHXjggjfEIHpGp-3" value="&lt;b&gt;&lt;font style=&quot;font-size: 36px;&quot;&gt;1::1&lt;/font&gt;&lt;/b&gt;" style="text;whiteSpace=wrap;html=1;" parent="1" vertex="1">
          <mxGeometry x="-560" y="80" width="60" height="40" as="geometry" />
        </mxCell>
        <mxCell id="xat3ABKRjLFzFoNFB_GZ-4" value="&lt;font style=&quot;font-size: 36px;&quot;&gt;&lt;b&gt;RÃ©ception&lt;/b&gt;&lt;/font&gt;" style="swimlane;childLayout=stackLayout;horizontal=1;startSize=50;horizontalStack=0;rounded=1;fontSize=14;fontStyle=0;strokeWidth=2;resizeParent=0;resizeLast=1;shadow=0;dashed=0;align=center;arcSize=4;whiteSpace=wrap;html=1;" parent="1" vertex="1">
          <mxGeometry x="-30" y="440" width="190" height="170" as="geometry" />
        </mxCell>
        <mxCell id="xat3ABKRjLFzFoNFB_GZ-5" value="&lt;div style=&quot;font-size: 17px;&quot;&gt;&lt;font style=&quot;font-size: 17px;&quot;&gt;id&lt;/font&gt;&lt;/div&gt;&lt;div style=&quot;font-size: 17px;&quot;&gt;&lt;font style=&quot;font-size: 17px;&quot;&gt;&lt;br&gt;&lt;/font&gt;&lt;/div&gt;" style="align=left;strokeColor=none;fillColor=none;spacingLeft=4;fontSize=12;verticalAlign=top;resizable=0;rotatable=0;part=1;html=1;" parent="xat3ABKRjLFzFoNFB_GZ-4" vertex="1">
          <mxGeometry y="50" width="190" height="120" as="geometry" />
        </mxCell>
        <mxCell id="xat3ABKRjLFzFoNFB_GZ-6" value="&lt;b&gt;&lt;font style=&quot;font-size: 36px;&quot;&gt;Capitaine&lt;/font&gt;&lt;/b&gt;" style="swimlane;childLayout=stackLayout;horizontal=1;startSize=50;horizontalStack=0;rounded=1;fontSize=14;fontStyle=0;strokeWidth=2;resizeParent=0;resizeLast=1;shadow=0;dashed=0;align=center;arcSize=4;whiteSpace=wrap;html=1;" parent="1" vertex="1">
          <mxGeometry x="-360" y="-580" width="160" height="170" as="geometry" />
        </mxCell>
        <mxCell id="xat3ABKRjLFzFoNFB_GZ-7" value="&lt;div&gt;&lt;font style=&quot;font-size: 18px;&quot;&gt;id&lt;/font&gt;&lt;/div&gt;&lt;div&gt;&lt;font size=&quot;3&quot;&gt;nom&lt;/font&gt;&lt;/div&gt;&lt;div&gt;&lt;font size=&quot;3&quot;&gt;prenom&lt;/font&gt;&lt;/div&gt;&lt;div&gt;&lt;font size=&quot;3&quot;&gt;telephone&lt;/font&gt;&lt;/div&gt;&lt;div&gt;&lt;font size=&quot;3&quot;&gt;mail&lt;br&gt;&lt;/font&gt;&lt;/div&gt;&lt;div&gt;&lt;font size=&quot;3&quot;&gt;&lt;br&gt;&lt;/font&gt;&lt;/div&gt;&lt;div&gt;&lt;font size=&quot;3&quot;&gt;&lt;br&gt;&lt;/font&gt;&lt;/div&gt;&lt;div&gt;&lt;font size=&quot;3&quot;&gt;&lt;br&gt;&lt;/font&gt;&lt;/div&gt;&lt;div&gt;&lt;font size=&quot;3&quot;&gt;&lt;br&gt;&lt;/font&gt;&lt;/div&gt;&lt;div&gt;&lt;font size=&quot;3&quot;&gt;&lt;br&gt;&lt;/font&gt;&lt;/div&gt;&lt;div&gt;&lt;font size=&quot;3&quot;&gt;&lt;br&gt;&lt;/font&gt;&lt;/div&gt;&lt;div&gt;&lt;font size=&quot;3&quot;&gt;&lt;br&gt;&lt;/font&gt;&lt;/div&gt;" style="align=left;strokeColor=none;fillColor=none;spacingLeft=4;fontSize=12;verticalAlign=top;resizable=0;rotatable=0;part=1;html=1;" parent="xat3ABKRjLFzFoNFB_GZ-6" vertex="1">
          <mxGeometry y="50" width="160" height="120" as="geometry" />
        </mxCell>
        <mxCell id="xat3ABKRjLFzFoNFB_GZ-23" style="edgeStyle=orthogonalEdgeStyle;rounded=0;orthogonalLoop=1;jettySize=auto;html=1;entryX=0.5;entryY=1;entryDx=0;entryDy=0;" parent="xat3ABKRjLFzFoNFB_GZ-6" source="xat3ABKRjLFzFoNFB_GZ-6" target="xat3ABKRjLFzFoNFB_GZ-7" edge="1">
          <mxGeometry relative="1" as="geometry" />
        </mxCell>
        <mxCell id="xat3ABKRjLFzFoNFB_GZ-9" value="&lt;font style=&quot;font-size: 36px;&quot;&gt;Jours&lt;/font&gt;" style="swimlane;childLayout=stackLayout;horizontal=1;startSize=50;horizontalStack=0;rounded=1;fontSize=14;fontStyle=0;strokeWidth=2;resizeParent=0;resizeLast=1;shadow=0;dashed=0;align=center;arcSize=4;whiteSpace=wrap;html=1;" parent="1" vertex="1">
          <mxGeometry x="640" y="730" width="160" height="250" as="geometry" />
        </mxCell>
        <mxCell id="xat3ABKRjLFzFoNFB_GZ-10" value="&lt;div style=&quot;font-size: 17px;&quot;&gt;&lt;font style=&quot;font-size: 17px;&quot;&gt;id&lt;/font&gt;&lt;/div&gt;&lt;div style=&quot;font-size: 17px;&quot;&gt;&lt;font style=&quot;font-size: 17px;&quot;&gt;lundi&lt;/font&gt;&lt;/div&gt;&lt;div style=&quot;font-size: 17px;&quot;&gt;&lt;font style=&quot;font-size: 17px;&quot;&gt;mardi&lt;/font&gt;&lt;/div&gt;&lt;div style=&quot;font-size: 17px;&quot;&gt;&lt;font style=&quot;font-size: 17px;&quot;&gt;mercredi&lt;/font&gt;&lt;/div&gt;&lt;div style=&quot;font-size: 17px;&quot;&gt;&lt;font style=&quot;font-size: 17px;&quot;&gt;jeudi&lt;/font&gt;&lt;/div&gt;&lt;div style=&quot;font-size: 17px;&quot;&gt;&lt;font style=&quot;font-size: 17px;&quot;&gt;vendredi&lt;/font&gt;&lt;/div&gt;&lt;div style=&quot;font-size: 17px;&quot;&gt;&lt;font style=&quot;font-size: 17px;&quot;&gt;samedi&lt;/font&gt;&lt;/div&gt;&lt;div style=&quot;font-size: 17px;&quot;&gt;&lt;font style=&quot;font-size: 17px;&quot;&gt;dimanche&lt;br&gt;&lt;/font&gt;&lt;/div&gt;&lt;div style=&quot;font-size: 17px;&quot;&gt;&lt;font style=&quot;font-size: 17px;&quot;&gt;&lt;br&gt;&lt;/font&gt;&lt;/div&gt;&lt;div&gt;&lt;br&gt;&lt;/div&gt;&lt;div&gt;&lt;br&gt;&lt;/div&gt;" style="align=left;strokeColor=none;fillColor=none;spacingLeft=4;fontSize=12;verticalAlign=top;resizable=0;rotatable=0;part=1;html=1;" parent="xat3ABKRjLFzFoNFB_GZ-9" vertex="1">
          <mxGeometry y="50" width="160" height="200" as="geometry" />
        </mxCell>
        <mxCell id="xat3ABKRjLFzFoNFB_GZ-13" value="&lt;font style=&quot;font-size: 36px;&quot;&gt;&lt;b&gt;TypeReception&lt;/b&gt;&lt;/font&gt;" style="swimlane;childLayout=stackLayout;horizontal=1;startSize=50;horizontalStack=0;rounded=1;fontSize=14;fontStyle=0;strokeWidth=2;resizeParent=0;resizeLast=1;shadow=0;dashed=0;align=center;arcSize=4;whiteSpace=wrap;html=1;" parent="1" vertex="1">
          <mxGeometry x="580" y="120" width="260" height="170" as="geometry" />
        </mxCell>
        <mxCell id="xat3ABKRjLFzFoNFB_GZ-14" value="&lt;div&gt;&lt;font size=&quot;3&quot;&gt;id&lt;/font&gt;&lt;/div&gt;&lt;div&gt;&lt;font size=&quot;3&quot;&gt;type&lt;br&gt;&lt;/font&gt;&lt;/div&gt;" style="align=left;strokeColor=none;fillColor=none;spacingLeft=4;fontSize=12;verticalAlign=top;resizable=0;rotatable=0;part=1;html=1;" parent="xat3ABKRjLFzFoNFB_GZ-13" vertex="1">
          <mxGeometry y="50" width="260" height="120" as="geometry" />
        </mxCell>
        <mxCell id="xat3ABKRjLFzFoNFB_GZ-15" value="&lt;font style=&quot;font-size: 36px;&quot;&gt;&lt;b&gt;Horaires&lt;/b&gt;&lt;/font&gt;" style="swimlane;childLayout=stackLayout;horizontal=1;startSize=50;horizontalStack=0;rounded=1;fontSize=14;fontStyle=0;strokeWidth=2;resizeParent=0;resizeLast=1;shadow=0;dashed=0;align=center;arcSize=4;whiteSpace=wrap;html=1;" parent="1" vertex="1">
          <mxGeometry x="620" y="440" width="160" height="170" as="geometry" />
        </mxCell>
        <mxCell id="xat3ABKRjLFzFoNFB_GZ-16" value="&lt;div style=&quot;font-size: 17px;&quot;&gt;&lt;font style=&quot;font-size: 17px;&quot;&gt;id&lt;/font&gt;&lt;/div&gt;&lt;div style=&quot;font-size: 17px;&quot;&gt;&lt;font style=&quot;font-size: 17px;&quot;&gt;&lt;br&gt;&lt;/font&gt;&lt;/div&gt;&lt;div style=&quot;font-size: 17px;&quot;&gt;&lt;font style=&quot;font-size: 17px;&quot;&gt;&lt;br&gt;&lt;/font&gt;&lt;/div&gt;&lt;div&gt;&lt;br&gt;&lt;/div&gt;&lt;div&gt;&lt;br&gt;&lt;/div&gt;&lt;div&gt;&lt;br&gt;&lt;/div&gt;&lt;div&gt;&lt;br&gt;&lt;/div&gt;" style="align=left;strokeColor=none;fillColor=none;spacingLeft=4;fontSize=12;verticalAlign=top;resizable=0;rotatable=0;part=1;html=1;" parent="xat3ABKRjLFzFoNFB_GZ-15" vertex="1">
          <mxGeometry y="50" width="160" height="120" as="geometry" />
        </mxCell>
        <mxCell id="xat3ABKRjLFzFoNFB_GZ-21" value="" style="edgeStyle=entityRelationEdgeStyle;fontSize=12;html=1;endArrow=ERzeroToMany;endFill=1;rounded=0;exitX=0.5;exitY=0;exitDx=0;exitDy=0;" parent="1" target="xat3ABKRjLFzFoNFB_GZ-7" edge="1">
          <mxGeometry width="100" height="100" relative="1" as="geometry">
            <mxPoint x="156.8" y="-210" as="sourcePoint" />
            <mxPoint x="-120.00000000000018" y="-483.8000000000002" as="targetPoint" />
            <Array as="points">
              <mxPoint x="156.8" y="-260" />
              <mxPoint x="156.8" y="-380" />
              <mxPoint x="-13.200000000000003" y="-320" />
              <mxPoint x="106.8" y="-360" />
              <mxPoint x="146.8" y="-390" />
              <mxPoint x="-213.2" y="-230" />
            </Array>
          </mxGeometry>
        </mxCell>
        <mxCell id="zXcYbIFHXjggjfEIHpGp-8" value="&lt;font style=&quot;font-size: 24px;&quot;&gt;PrÃ©senter&lt;/font&gt;" style="ellipse;whiteSpace=wrap;html=1;" parent="1" vertex="1">
          <mxGeometry x="-620" y="-320" width="120" height="80" as="geometry" />
        </mxCell>
        <mxCell id="xat3ABKRjLFzFoNFB_GZ-26" value="" style="endArrow=none;html=1;rounded=0;entryX=-0.016;entryY=0.34;entryDx=0;entryDy=0;entryPerimeter=0;exitX=0.5;exitY=0;exitDx=0;exitDy=0;" parent="1" source="zXcYbIFHXjggjfEIHpGp-8" target="xat3ABKRjLFzFoNFB_GZ-7" edge="1">
          <mxGeometry width="50" height="50" relative="1" as="geometry">
            <mxPoint x="-570" y="-489" as="sourcePoint" />
            <mxPoint x="-580" y="-740" as="targetPoint" />
            <Array as="points">
              <mxPoint x="-560" y="-489" />
            </Array>
          </mxGeometry>
        </mxCell>
        <mxCell id="xat3ABKRjLFzFoNFB_GZ-27" value="" style="endArrow=none;html=1;rounded=0;entryX=0.5;entryY=1;entryDx=0;entryDy=0;exitX=0.5;exitY=0;exitDx=0;exitDy=0;" parent="1" source="NFJiu9YFtX_5betRr8bP-61" target="zXcYbIFHXjggjfEIHpGp-8" edge="1">
          <mxGeometry width="50" height="50" relative="1" as="geometry">
            <mxPoint x="850" y="60" as="sourcePoint" />
            <mxPoint x="900" y="10" as="targetPoint" />
            <Array as="points" />
          </mxGeometry>
        </mxCell>
        <mxCell id="3LxmwigxqQH4CxAUP61s-4" value="" style="endArrow=none;html=1;rounded=0;entryX=0.5;entryY=1;entryDx=0;entryDy=0;exitX=0.44;exitY=0;exitDx=0;exitDy=0;exitPerimeter=0;" edge="1" parent="1" source="3LxmwigxqQH4CxAUP61s-6">
          <mxGeometry width="50" height="50" relative="1" as="geometry">
            <mxPoint x="-570" y="220" as="sourcePoint" />
            <mxPoint x="-570" y="70" as="targetPoint" />
            <Array as="points" />
          </mxGeometry>
        </mxCell>
        <mxCell id="3LxmwigxqQH4CxAUP61s-5" value="&lt;font style=&quot;font-size: 18px;&quot;&gt;0:n&lt;/font&gt;" style="text;whiteSpace=wrap;html=1;" vertex="1" parent="1">
          <mxGeometry x="-550" y="250" width="60" height="40" as="geometry" />
        </mxCell>
        <mxCell id="3LxmwigxqQH4CxAUP61s-7" value="" style="endArrow=none;html=1;rounded=0;entryX=0.5;entryY=1;entryDx=0;entryDy=0;" edge="1" parent="1" target="3LxmwigxqQH4CxAUP61s-6">
          <mxGeometry width="50" height="50" relative="1" as="geometry">
            <mxPoint x="-560" y="410" as="sourcePoint" />
            <mxPoint x="-570" y="70" as="targetPoint" />
            <Array as="points" />
          </mxGeometry>
        </mxCell>
        <mxCell id="3LxmwigxqQH4CxAUP61s-6" value="&lt;font style=&quot;font-size: 24px;&quot;&gt;AdhÃ©rer&lt;/font&gt;" style="ellipse;whiteSpace=wrap;html=1;" vertex="1" parent="1">
          <mxGeometry x="-620" y="210" width="120" height="80" as="geometry" />
        </mxCell>
        <mxCell id="3LxmwigxqQH4CxAUP61s-9" value="" style="endArrow=none;html=1;rounded=0;entryX=0;entryY=0.25;entryDx=0;entryDy=0;exitX=1;exitY=0.25;exitDx=0;exitDy=0;" edge="1" parent="1" source="xat3ABKRjLFzFoNFB_GZ-5" target="xat3ABKRjLFzFoNFB_GZ-16">
          <mxGeometry width="50" height="50" relative="1" as="geometry">
            <mxPoint x="150" y="520" as="sourcePoint" />
            <mxPoint x="-550" y="300" as="targetPoint" />
            <Array as="points" />
          </mxGeometry>
        </mxCell>
        <mxCell id="3LxmwigxqQH4CxAUP61s-13" value="" style="endArrow=none;html=1;rounded=0;" edge="1" parent="1" source="3LxmwigxqQH4CxAUP61s-19">
          <mxGeometry width="50" height="50" relative="1" as="geometry">
            <mxPoint x="40" y="430" as="sourcePoint" />
            <mxPoint x="570" y="230" as="targetPoint" />
            <Array as="points" />
          </mxGeometry>
        </mxCell>
        <mxCell id="3LxmwigxqQH4CxAUP61s-14" value="" style="endArrow=none;html=1;rounded=0;exitX=1;exitY=0.25;exitDx=0;exitDy=0;" edge="1" parent="1">
          <mxGeometry width="50" height="50" relative="1" as="geometry">
            <mxPoint x="-480" y="511.67" as="sourcePoint" />
            <mxPoint x="-40" y="512" as="targetPoint" />
            <Array as="points" />
          </mxGeometry>
        </mxCell>
        <mxCell id="3LxmwigxqQH4CxAUP61s-15" value="" style="endArrow=none;html=1;rounded=0;" edge="1" parent="1" source="3LxmwigxqQH4CxAUP61s-16">
          <mxGeometry width="50" height="50" relative="1" as="geometry">
            <mxPoint x="-470" as="sourcePoint" />
            <mxPoint x="70" as="targetPoint" />
            <Array as="points" />
          </mxGeometry>
        </mxCell>
        <mxCell id="3LxmwigxqQH4CxAUP61s-17" value="" style="endArrow=none;html=1;rounded=0;" edge="1" parent="1" target="3LxmwigxqQH4CxAUP61s-16">
          <mxGeometry width="50" height="50" relative="1" as="geometry">
            <mxPoint x="-470" as="sourcePoint" />
            <mxPoint x="70" as="targetPoint" />
            <Array as="points">
              <mxPoint x="-180" />
            </Array>
          </mxGeometry>
        </mxCell>
        <mxCell id="3LxmwigxqQH4CxAUP61s-16" value="&lt;font style=&quot;font-size: 24px;&quot;&gt;Jouer&lt;/font&gt;" style="ellipse;whiteSpace=wrap;html=1;" vertex="1" parent="1">
          <mxGeometry x="-260" y="-40" width="120" height="80" as="geometry" />
        </mxCell>
        <mxCell id="3LxmwigxqQH4CxAUP61s-18" value="&lt;font style=&quot;font-size: 24px;&quot;&gt;Assurer&lt;/font&gt;" style="ellipse;whiteSpace=wrap;html=1;" vertex="1" parent="1">
          <mxGeometry x="-320" y="460" width="120" height="80" as="geometry" />
        </mxCell>
        <mxCell id="3LxmwigxqQH4CxAUP61s-20" value="" style="endArrow=none;html=1;rounded=0;entryX=0;entryY=0.378;entryDx=0;entryDy=0;entryPerimeter=0;" edge="1" parent="1" target="3LxmwigxqQH4CxAUP61s-19">
          <mxGeometry width="50" height="50" relative="1" as="geometry">
            <mxPoint x="40" y="430" as="sourcePoint" />
            <mxPoint x="630" y="215" as="targetPoint" />
            <Array as="points">
              <mxPoint x="40" y="215" />
            </Array>
          </mxGeometry>
        </mxCell>
        <mxCell id="3LxmwigxqQH4CxAUP61s-19" value="&lt;font style=&quot;font-size: 24px;&quot;&gt;Se caractÃ©riser&lt;/font&gt;" style="ellipse;whiteSpace=wrap;html=1;" vertex="1" parent="1">
          <mxGeometry x="290" y="180" width="160" height="100" as="geometry" />
        </mxCell>
        <mxCell id="3LxmwigxqQH4CxAUP61s-21" value="&lt;font style=&quot;font-size: 24px;&quot;&gt;DÃ©limiter&lt;/font&gt;" style="ellipse;whiteSpace=wrap;html=1;" vertex="1" parent="1">
          <mxGeometry x="310" y="485" width="120" height="80" as="geometry" />
        </mxCell>
        <mxCell id="3LxmwigxqQH4CxAUP61s-24" value="" style="endArrow=none;html=1;rounded=0;exitX=0.37;exitY=0.992;exitDx=0;exitDy=0;exitPerimeter=0;" edge="1" parent="1" source="xat3ABKRjLFzFoNFB_GZ-5" target="3LxmwigxqQH4CxAUP61s-22">
          <mxGeometry width="50" height="50" relative="1" as="geometry">
            <mxPoint x="40" y="610" as="sourcePoint" />
            <mxPoint x="630" y="850" as="targetPoint" />
            <Array as="points">
              <mxPoint x="40" y="850" />
            </Array>
          </mxGeometry>
        </mxCell>
        <mxCell id="3LxmwigxqQH4CxAUP61s-22" value="&lt;font style=&quot;font-size: 24px;&quot;&gt;se dÃ©rouler&lt;/font&gt;" style="ellipse;whiteSpace=wrap;html=1;" vertex="1" parent="1">
          <mxGeometry x="320" y="810" width="120" height="80" as="geometry" />
        </mxCell>
        <mxCell id="3LxmwigxqQH4CxAUP61s-27" value="" style="endArrow=none;html=1;rounded=0;entryX=1;entryY=0.5;entryDx=0;entryDy=0;" edge="1" parent="1" target="3LxmwigxqQH4CxAUP61s-22">
          <mxGeometry width="50" height="50" relative="1" as="geometry">
            <mxPoint x="630" y="850" as="sourcePoint" />
            <mxPoint x="-30" y="522" as="targetPoint" />
            <Array as="points" />
          </mxGeometry>
        </mxCell>
        <mxCell id="3LxmwigxqQH4CxAUP61s-28" value="&lt;b&gt;&lt;font style=&quot;font-size: 36px;&quot;&gt;1::n&lt;/font&gt;&lt;/b&gt;" style="text;whiteSpace=wrap;html=1;" vertex="1" parent="1">
          <mxGeometry x="-540" y="360" width="60" height="40" as="geometry" />
        </mxCell>
        <mxCell id="3LxmwigxqQH4CxAUP61s-29" value="&lt;b&gt;&lt;font style=&quot;font-size: 36px;&quot;&gt;1::1&lt;/font&gt;&lt;/b&gt;" style="text;whiteSpace=wrap;html=1;" vertex="1" parent="1">
          <mxGeometry x="-110" y="460" width="60" height="40" as="geometry" />
        </mxCell>
        <mxCell id="3LxmwigxqQH4CxAUP61s-30" value="&lt;b&gt;&lt;font style=&quot;font-size: 36px;&quot;&gt;0::n&lt;/font&gt;&lt;/b&gt;" style="text;whiteSpace=wrap;html=1;" vertex="1" parent="1">
          <mxGeometry x="-455" y="460" width="60" height="40" as="geometry" />
        </mxCell>
        <mxCell id="3LxmwigxqQH4CxAUP61s-31" value="&lt;b&gt;&lt;font style=&quot;font-size: 36px;&quot;&gt;1::1&lt;/font&gt;&lt;/b&gt;" style="text;whiteSpace=wrap;html=1;" vertex="1" parent="1">
          <mxGeometry x="50" y="380" width="60" height="40" as="geometry" />
        </mxCell>
        <mxCell id="3LxmwigxqQH4CxAUP61s-32" value="&lt;b&gt;&lt;font style=&quot;font-size: 36px;&quot;&gt;1::n&lt;/font&gt;&lt;/b&gt;" style="text;whiteSpace=wrap;html=1;" vertex="1" parent="1">
          <mxGeometry x="170" y="470" width="60" height="40" as="geometry" />
        </mxCell>
        <mxCell id="3LxmwigxqQH4CxAUP61s-33" value="&lt;b&gt;&lt;font style=&quot;font-size: 36px;&quot;&gt;1::1&lt;/font&gt;&lt;/b&gt;" style="text;whiteSpace=wrap;html=1;" vertex="1" parent="1">
          <mxGeometry x="50" y="620" width="60" height="40" as="geometry" />
        </mxCell>
        <mxCell id="3LxmwigxqQH4CxAUP61s-34" value="&lt;b&gt;&lt;font style=&quot;font-size: 36px;&quot;&gt;0::n&lt;/font&gt;&lt;/b&gt;" style="text;whiteSpace=wrap;html=1;" vertex="1" parent="1">
          <mxGeometry x="500" y="170" width="60" height="40" as="geometry" />
        </mxCell>
        <mxCell id="3LxmwigxqQH4CxAUP61s-35" value="&lt;b&gt;&lt;font style=&quot;font-size: 36px;&quot;&gt;0::n&lt;/font&gt;&lt;/b&gt;" style="text;whiteSpace=wrap;html=1;" vertex="1" parent="1">
          <mxGeometry x="540" y="460" width="60" height="40" as="geometry" />
        </mxCell>
        <mxCell id="3LxmwigxqQH4CxAUP61s-36" value="&lt;b&gt;&lt;font style=&quot;font-size: 36px;&quot;&gt;0::n&lt;/font&gt;&lt;/b&gt;" style="text;whiteSpace=wrap;html=1;" vertex="1" parent="1">
          <mxGeometry x="550" y="800" width="60" height="40" as="geometry" />
        </mxCell>
        <mxCell id="3LxmwigxqQH4CxAUP61s-37" value="&lt;b&gt;&lt;font style=&quot;font-size: 36px;&quot;&gt;1::1&lt;/font&gt;&lt;/b&gt;" style="text;whiteSpace=wrap;html=1;" vertex="1" parent="1">
          <mxGeometry x="-540" y="-140" width="60" height="40" as="geometry" />
        </mxCell>
        <mxCell id="3LxmwigxqQH4CxAUP61s-38" value="&lt;b&gt;&lt;font style=&quot;font-size: 36px;&quot;&gt;1::n&lt;/font&gt;&lt;/b&gt;" style="text;whiteSpace=wrap;html=1;" vertex="1" parent="1">
          <mxGeometry x="-440" y="-470" width="60" height="40" as="geometry" />
        </mxCell>
        <mxCell id="3LxmwigxqQH4CxAUP61s-40" value="&lt;b&gt;&lt;font style=&quot;font-size: 36px;&quot;&gt;1::n&lt;/font&gt;&lt;/b&gt;" style="text;whiteSpace=wrap;html=1;" vertex="1" parent="1">
          <mxGeometry y="-70" width="60" height="40" as="geometry" />
        </mxCell>
        <mxCell id="3LxmwigxqQH4CxAUP61s-43" value="&lt;b&gt;&lt;font style=&quot;font-size: 36px;&quot;&gt;1::n&lt;/font&gt;&lt;/b&gt;" style="text;whiteSpace=wrap;html=1;" vertex="1" parent="1">
          <mxGeometry x="-470" y="-50" width="60" height="40" as="geometry" />
        </mxCell>
        <mxCell id="3LxmwigxqQH4CxAUP61s-45" value="&lt;font style=&quot;font-size: 24px;&quot;&gt;Se transformer&lt;/font&gt;" style="ellipse;whiteSpace=wrap;html=1;" vertex="1" parent="1">
          <mxGeometry x="70" y="-440" width="280" height="80" as="geometry" />
        </mxCell>
        <mxCell id="3LxmwigxqQH4CxAUP61s-46" value="&lt;div&gt;&lt;br&gt;&lt;/div&gt;&lt;div&gt;&lt;br&gt;&lt;/div&gt;" style="text;whiteSpace=wrap;html=1;" vertex="1" parent="1">
          <mxGeometry x="-170" y="-530" width="60" height="40" as="geometry" />
        </mxCell>
        <mxCell id="3LxmwigxqQH4CxAUP61s-47" value="&lt;b&gt;&lt;font style=&quot;font-size: 36px;&quot;&gt;0::1&lt;/font&gt;&lt;/b&gt;" style="text;whiteSpace=wrap;html=1;" vertex="1" parent="1">
          <mxGeometry x="210" y="-270" width="60" height="40" as="geometry" />
        </mxCell>
        <mxCell id="3LxmwigxqQH4CxAUP61s-48" value="&lt;b&gt;&lt;font style=&quot;font-size: 36px;&quot;&gt;0::1&lt;/font&gt;&lt;/b&gt;" style="text;whiteSpace=wrap;html=1;" vertex="1" parent="1">
          <mxGeometry x="-180" y="-530" width="60" height="40" as="geometry" />
        </mxCell>
      </root>
    </mxGraphModel>
  </diagram>
</mxfile>
